<?xml version="1.0" encoding="iso-8859-1"?>
<!-- Generator: Adobe Illustrator 19.0.0, SVG Export Plug-In . SVG Version: 6.00 Build 0)  -->
<svg version="1.1" id="Capa_1" xmlns="http://www.w3.org/2000/svg" xmlns:xlink="http://www.w3.org/1999/xlink" x="0px" y="0px"
	 viewBox="0 0 512 512" style="enable-background:new 0 0 512 512;" xml:space="preserve">
<g>
	<g>
		<path d="M424.365,64h12.969C443.229,64,448,59.229,448,53.333V10.667C448,4.771,443.229,0,437.333,0h-59.74
			c-13.948,0-27.042,6.813-35.01,18.208c-7.958,11.396-9.844,26-5.063,39.073C354.885,104.698,384,194.948,384,266.667
			c0,84.24-50.24,138.667-128,138.667s-128-54.427-128-138.667c0-71.625,29.135-161.938,46.51-209.396
			c4.781-13.083,2.885-27.677-5.073-39.063C161.469,6.802,148.375,0,134.427,0h-59.76C68.771,0,64,4.771,64,10.667v42.667
			C64,59.229,68.771,64,74.667,64h12.969c-28.354,49.094-66.302,137.406-66.302,224c0,133.99,121.344,224,234.667,224
			s234.667-90.01,234.667-224C490.667,201.406,452.719,113.094,424.365,64z M74.667,298.667C68.776,298.667,64,293.891,64,288
			c0-5.892,4.776-10.667,10.667-10.667S85.333,282.108,85.333,288C85.333,293.891,80.557,298.667,74.667,298.667z M96,170.667
			c-5.891,0-10.667-4.776-10.667-10.667c0-5.892,4.776-10.667,10.667-10.667s10.667,4.775,10.667,10.667
			C106.667,165.891,101.891,170.667,96,170.667z M117.333,405.333c-5.891,0-10.667-4.776-10.667-10.667
			c0-5.892,4.776-10.667,10.667-10.667S128,388.775,128,394.667C128,400.557,123.224,405.333,117.333,405.333z M256,469.333
			c-5.891,0-10.667-4.776-10.667-10.667c0-5.892,4.776-10.667,10.667-10.667c5.891,0,10.667,4.775,10.667,10.667
			C266.667,464.557,261.891,469.333,256,469.333z M394.667,405.333c-5.891,0-10.667-4.776-10.667-10.667
			c0-5.892,4.776-10.667,10.667-10.667s10.667,4.775,10.667,10.667C405.333,400.557,400.557,405.333,394.667,405.333z M416,170.667
			c-5.891,0-10.667-4.776-10.667-10.667c0-5.892,4.776-10.667,10.667-10.667s10.667,4.775,10.667,10.667
			C426.667,165.891,421.891,170.667,416,170.667z M437.333,298.667c-5.891,0-10.667-4.776-10.667-10.667
			c0-5.892,4.776-10.667,10.667-10.667S448,282.108,448,288C448,293.891,443.224,298.667,437.333,298.667z"/>
	</g>
</g>
<g>
</g>
<g>
</g>
<g>
</g>
<g>
</g>
<g>
</g>
<g>
</g>
<g>
</g>
<g>
</g>
<g>
</g>
<g>
</g>
<g>
</g>
<g>
</g>
<g>
</g>
<g>
</g>
<g>
</g>
</svg>
