<svg id="Layer_1" enable-background="new 0 0 512 512" height="512" viewBox="0 0 512 512" width="512" xmlns="http://www.w3.org/2000/svg"><g><path d="m272 24.46v-8.46c0-8.836-7.164-16-16-16s-16 7.164-16 16v8.46c-129.077 7.588-240 107.175-240 239.54 0 11.647 12.063 19.368 22.62 14.57 71.66-32.57 118.26 5.66 125.22 11.95 5.439 6.459 16.15 8.13 23.77.52 12.629-11.551 37.672-23.4 68.39-26.29v191.25c0 30.878 25.122 56 56 56s56-25.122 56-56c0-8.836-7.164-16-16-16s-16 7.164-16 16c0 13.234-10.766 24-24 24s-24-10.766-24-24v-191.25c29.842 2.808 54.841 14.106 68.3 26.21 1.931 1.786 3.728 3.493 7.1 4.47 6.011 1.868 12.718-.158 16.72-4.86 7.04-6.37 53.63-44.56 125.26-12 10.562 4.801 22.62-2.928 22.62-14.57 0-132.293-110.833-231.947-240-239.54z"/></g></svg>